<svg xmlns="http://www.w3.org/2000/svg" viewBox="0 0 2020.16 1274.43"><defs><style>.cls-1{fill:#009df9;}.cls-2{fill:#00aefb;}.cls-3{fill:#00befc;}.cls-4{fill:#17cdfc;}.cls-5{fill:#70dcfd;}.cls-6{opacity:0.1;}.cls-7{fill:#f0cf51;}.cls-8{fill:#d6b13c;}.cls-9{fill:#e6c441;}.cls-10{fill:#7a6853;}.cls-11{fill:#fff;}.cls-12{fill:#a02a2a;}.cls-13{fill:#e55955;}</style></defs><g id="Слой_2" data-name="Слой 2"><g id="Слой_1-2" data-name="Слой 1"><rect class="cls-1" x="0.04" width="2020.12" height="1274.43"/><path class="cls-2" d="M2020.16,469.25V1030a264.2,264.2,0,0,1-109.77,23.67H304.53a264.82,264.82,0,0,1-52-5.24C139.05,1026.06,54.06,932.58,54.06,820.69V709c0-157.4,137.27-285,306.65-285a330,330,0,0,1,64.71,6.43c46.4-102.58,155.5-174.79,282.78-174.79a329,329,0,0,1,105.35,17.29c68.65-94.7,185.05-157.2,317.27-157.2,146.54,0,273.71,76.78,337.74,189.39a406.44,406.44,0,0,1,44.12-2.44c116.67,0,221,48.65,291.1,125.27a332.93,332.93,0,0,1,50.55-3.95A321.32,321.32,0,0,1,2020.16,469.25Z"/><path class="cls-3" d="M1201,1013.71v84.55a176.24,176.24,0,0,1-176.17,176.17H0V766.75l0-.06a216.34,216.34,0,0,1,179.37-95.94,213.37,213.37,0,0,1,74.1,13.1c82.6-123.21,249.43-156.13,372.64-73.53a268.58,268.58,0,0,1,88,97.8,288.31,288.31,0,0,1,31.09-1.82A268.28,268.28,0,0,1,949.91,801a218.91,218.91,0,0,1,35.51-3A215.58,215.58,0,0,1,1189.1,943l0,.08A212.86,212.86,0,0,1,1201,1013.71Z"/><path class="cls-4" d="M2020.16,1012.6v261.83H648.51c3-3.75,6.27-7.41,9.66-11a248.88,248.88,0,0,1,58.13-45.33c42-23.89,92.83-37.88,147.64-37.88a318,318,0,0,1,55,4.78c36.74-72.26,119.76-124.51,218.49-131.32l2.86-.19A239.47,239.47,0,0,1,1189.1,943c57.76-74.18,158.45-123.26,273-123.26,132.06,0,245.58,65.14,296.32,158.69a389.67,389.67,0,0,1,85-9.39A371.65,371.65,0,0,1,2020.16,1012.6Z"/><path class="cls-5" d="M0,1137.76H0a224.86,224.86,0,0,1,66.76,28.79c13.68-63,42.81-119.2,82.68-163.09,29.14-32.08,64-57.6,102.77-74.44a273.44,273.44,0,0,1,232,5.76c51.94,25.62,96.26,67.06,128.08,118.92a360.47,360.47,0,0,1,45.76,116.83c.95,4,1.74,8.09,2.33,12.28s1.3,7.61,1.82,11.44a283.16,283.16,0,0,1,54.06,23.87,307.18,307.18,0,0,1,71.08,56.3H0"/><ellipse class="cls-6" cx="1010.08" cy="569.39" rx="298.8" ry="104.98"/><path class="cls-7" d="M1064.31,257l54.32-86.94A27.06,27.06,0,0,1,1149,158.28c23.35,6.63,63.17,27.36,104.78,91.3a6.44,6.44,0,0,1-6.63,9.82c-30.42-6.06-100.36-9.74-154.25,64.75Z"/><path class="cls-8" d="M1071.73,274.44l21.14,49.65c53.91-74.49,123.84-70.78,154.24-64.75a6.43,6.43,0,0,0,7.16-8.84,5.79,5.79,0,0,0-.51-.95c-27.52-37.54-77.08-62.24-100.41-68.88a27.2,27.2,0,0,0-30.41,11.78Z"/><path class="cls-7" d="M955.86,257l-54.23-87a27.1,27.1,0,0,0-30.45-11.73c-23.34,6.63-63.16,27.36-104.76,91.3A6.43,6.43,0,0,0,773,259.4c30.43-6.06,100.35-9.74,154.24,64.75Z"/><path class="cls-8" d="M948.43,274.44,927.3,324.09c-53.92-74.49-123.84-70.78-154.25-64.75a6.4,6.4,0,0,1-6.65-9.73c27.53-37.54,77.09-62.25,100.43-68.88a27.2,27.2,0,0,1,30.41,11.78Z"/><ellipse class="cls-9" cx="871.56" cy="502.73" rx="44.62" ry="34.12" transform="translate(-110.43 721.92) rotate(-42.56)"/><ellipse class="cls-9" cx="1148.61" cy="502.82" rx="34.12" ry="44.62" transform="translate(1.37 1008.76) rotate(-47.44)"/><ellipse class="cls-7" cx="1010.08" cy="407.25" rx="178.5" ry="178.48"/><path class="cls-9" d="M883.9,348.55c-8.64,18.49-21.58,32-33.27,36.15-5.27,1.86-12.1.22-17.12-3.67a177.91,177.91,0,0,1,43.1-92h0c6.12,1.39,11.7,5.56,13.61,10.75C894.55,311.45,892.53,330,883.9,348.55Z"/><path class="cls-10" d="M836.6,370a9.73,9.73,0,0,0,11.93,2.68c7.91-4.17,17.36-15.63,24.38-30.68s9.74-29.67,7.83-38.38a9.8,9.8,0,0,0-9.73-7.44l-84.66.56a4.91,4.91,0,0,0-3.75,8Z"/><path class="cls-9" d="M1186.65,381.14c-5,3.92-11.87,5.56-17.14,3.71-11.65-4.17-24.64-17.66-33.27-36.15s-10.62-37.11-6.3-48.73c2-5.3,7.67-9.47,13.9-10.8A177.45,177.45,0,0,1,1186.65,381.14Z"/><path class="cls-10" d="M1183.57,370.13a9.76,9.76,0,0,1-12,2.67c-7.89-4.17-17.35-15.63-24.37-30.69s-9.73-29.66-7.83-38.37a9.75,9.75,0,0,1,9.73-7.43l84.68.54a4.9,4.9,0,0,1,4.86,4.95,4.85,4.85,0,0,1-1.12,3.09Z"/><path class="cls-9" d="M1043,329.79,1020.52,341a23.28,23.28,0,0,1-20.86,0l-22.52-11.26a8.61,8.61,0,0,1,0-15.39l22.51-11.25a23.19,23.19,0,0,1,20.85,0L1043,314.4a8.59,8.59,0,0,1,0,15.39Z"/><path class="cls-10" d="M1036.2,322.08,1018.36,331a18.43,18.43,0,0,1-16.5,0L984,322.08a6.82,6.82,0,0,1,0-12.2l17.84-8.92a18.43,18.43,0,0,1,16.5,0l17.84,8.87a6.82,6.82,0,0,1,0,12.25Z"/><path class="cls-9" d="M1036.2,280.35l-17.84,8.91a18.43,18.43,0,0,1-16.5,0L984,280.34a6.84,6.84,0,0,1,0-12.21l17.84-8.93a18.49,18.49,0,0,1,16.5,0l17.84,8.91a6.83,6.83,0,0,1,0,12.24Z"/><path class="cls-10" d="M1030.28,272.84l-13.79,7a14.23,14.23,0,0,1-12.75,0l-13.8-7a5.27,5.27,0,0,1,0-9.42l13.8-7a14.23,14.23,0,0,1,12.75,0l13.79,7a5.26,5.26,0,0,1,0,9.42Z"/><path class="cls-9" d="M1028.79,238.74,1016,245.12a13.17,13.17,0,0,1-11.8,0l-12.79-6.38a4.89,4.89,0,0,1,0-8.75l12.79-6.38a13.22,13.22,0,0,1,11.82,0l12.76,6.38a4.89,4.89,0,0,1,2.18,6.57A5,5,0,0,1,1028.79,238.74Z"/><path class="cls-10" d="M1025,233.93l-10.19,5.1a10.65,10.65,0,0,1-9.44,0l-10.2-5.1a3.92,3.92,0,0,1-1.7-5.26,4,4,0,0,1,1.7-1.7l10.2-5.1a10.53,10.53,0,0,1,9.44,0L1025,227a3.92,3.92,0,0,1,1.7,5.26A4,4,0,0,1,1025,233.93Z"/><circle class="cls-9" cx="949.44" cy="411.09" r="41.53"/><circle class="cls-9" cx="944.56" cy="406.21" r="36.65"/><path class="cls-11" d="M981.22,405.85a36.67,36.67,0,0,1-73.31,1.75c0-.46,0-.92,0-1.38v-.29a18,18,0,0,1,7.87-14.47,52.09,52.09,0,0,1,58.5.68,17.09,17.09,0,0,1,7,13.29Z"/><circle class="cls-10" cx="944.56" cy="419.47" r="18.46"/><circle class="cls-11" cx="938.91" cy="410.92" r="3.71"/><circle class="cls-11" cx="932.89" cy="416.95" r="2.32"/><circle class="cls-9" cx="1070.65" cy="411.09" r="41.53"/><circle class="cls-9" cx="1075.52" cy="406.19" r="36.65"/><path class="cls-11" d="M1112.17,405.83a36.67,36.67,0,0,1-73.31,1.75c0-.45,0-.91,0-1.37v-.29a17.94,17.94,0,0,1,8-14.48,52.11,52.11,0,0,1,58.49.68,17.09,17.09,0,0,1,7,13.29A.83.83,0,0,0,1112.17,405.83Z"/><circle class="cls-10" cx="1075.53" cy="419.44" r="18.46"/><circle class="cls-11" cx="1069.9" cy="410.91" r="3.71"/><circle class="cls-11" cx="1063.86" cy="416.93" r="2.32"/><path class="cls-10" d="M1052.67,352.41a35,35,0,0,1,20.34-10,44.37,44.37,0,0,1,23.37,2.89l5.31,2.65a39.11,39.11,0,0,1,4.88,3.26,51.25,51.25,0,0,1,8.5,7.82,75.48,75.48,0,0,1,6.53,9.24,78,78,0,0,1,4.3,10.4,96.92,96.92,0,0,1-8.69-6.69c-3-2-5.56-4.26-8.34-6.17a68,68,0,0,0-8.34-5.33,76.93,76.93,0,0,0-8.58-4.38,65.23,65.23,0,0,0-18.49-4.55A80.89,80.89,0,0,0,1052.67,352.41Z"/><path class="cls-10" d="M967.38,352.41a80.11,80.11,0,0,0-20.69-.87,65.22,65.22,0,0,0-18.49,4.54,78.67,78.67,0,0,0-8.58,4.38c-2.94,1.39-5.56,3.56-8.34,5.33S905.9,370,902.94,372a95.37,95.37,0,0,1-8.68,6.69,77,77,0,0,1,4.19-10.43A76.07,76.07,0,0,1,905,359a52.08,52.08,0,0,1,8.49-7.83,40,40,0,0,1,4.9-3.25l5.31-2.66A44.57,44.57,0,0,1,947,342.36,35.1,35.1,0,0,1,967.38,352.41Z"/><path class="cls-12" d="M1098.43,563.35a178.57,178.57,0,0,1-176.69,0c11.36-25.29,46.62-43.72,88.34-43.72S1087,538.06,1098.43,563.35Z"/><path class="cls-13" d="M1029.56,549v56.71a4.17,4.17,0,0,1-5.87,3.77l-8.06-3.67a13.56,13.56,0,0,0-11.12,0l-8,3.67a4.18,4.18,0,0,1-5.51-2.11,4.35,4.35,0,0,1-.36-1.67V549Z"/><path class="cls-11" d="M1092.08,554.25a4.89,4.89,0,0,0-1.33-6c-3.53-2.72-10.74-4.56-19-4.56s-15.51,1.84-19,4.56a4.9,4.9,0,0,0-1.31,6l18.08,38.25a2.45,2.45,0,0,0,3.28,1.15,2.42,2.42,0,0,0,1.15-1.15Z"/><path class="cls-11" d="M968.81,554.25a4.89,4.89,0,0,0-1.3-6c-3.55-2.72-10.75-4.56-19.07-4.56s-15.5,1.84-19,4.56a4.9,4.9,0,0,0-1.31,6l18.14,38.25a2.46,2.46,0,0,0,3.26,1.17,2.55,2.55,0,0,0,1.17-1.17Z"/><path class="cls-9" d="M1116.94,540.41h0a48.66,48.66,0,0,1-62.19,29.26h0a131.75,131.75,0,0,0-89.32,0h0a48.66,48.66,0,0,1-62.19-29.26h0a48.67,48.67,0,0,1,29.2-62.18h0a229,229,0,0,1,155.18,0h0A48.67,48.67,0,0,1,1116.94,540.41Z"/><ellipse class="cls-10" cx="1081.85" cy="530.02" rx="16.85" ry="11.5" transform="translate(-40.27 968.39) rotate(-47.44)"/><ellipse class="cls-10" cx="938.32" cy="530.05" rx="11.5" ry="16.85" transform="translate(-111.32 774.27) rotate(-42.56)"/><path class="cls-11" d="M793.56,834.47l-31-33.79,26.77-28.62h0a13.07,13.07,0,0,1,5.44-3.75,20.3,20.3,0,0,1,7.19-1.25h.5v-1.25H776.93v1.25h1.13a3.4,3.4,0,0,1,3.18,1.56,2.74,2.74,0,0,1-.43,3.32h0l-26.93,31.64q4,4.38,7.13,7.82t6.7,7.25q3.56,3.81,6.69,7.25t7,7.82a18.82,18.82,0,0,0,4.82,3.94,22.09,22.09,0,0,0,5.12,2.13,27,27,0,0,0,4.76.87c1.46.13,2.68.19,3.68.19h4.64V839.6a14.77,14.77,0,0,1-6.38-1.38A15.3,15.3,0,0,1,793.56,834.47Z"/><path class="cls-11" d="M751.66,837.6a6.35,6.35,0,0,1-2.12-4.76v-59a6.27,6.27,0,0,1,2.12-4.81,7.37,7.37,0,0,1,5.13-1.94h1.51v-1.25H732.66v1.25h1.5a7.32,7.32,0,0,1,5.12,1.94,6.64,6.64,0,0,1,2.25,4.81v59a6.75,6.75,0,0,1-2.25,4.76,7.2,7.2,0,0,1-5.12,2h-1.5v1.25H758.3V839.6h-1.38A7.4,7.4,0,0,1,751.66,837.6Z"/><path class="cls-11" d="M896.61,767.06h1.51a4.29,4.29,0,0,1,4,2.13,4.41,4.41,0,0,1-.12,4.61l-19.09,31.6-17.83-31.71h0a4.34,4.34,0,0,1-.06-4.44,4.12,4.12,0,0,1,3.94-2.19h1.5v-1.25h-29v1.25H843a12.9,12.9,0,0,1,6.56,1.69,15.16,15.16,0,0,1,4.94,4.57h.06l23.08,36.36v23.16a6.89,6.89,0,0,1-2.19,4.76,7,7,0,0,1-5.06,2h-1.51v1.25h25.64V839.6H893a7,7,0,0,1-5.06-2,6.84,6.84,0,0,1-2.19-4.76v-23l24-36.42h.18a16.61,16.61,0,0,1,4.82-4.44,12.08,12.08,0,0,1,6.57-1.94h1.5v-1.25H896.61Z"/><path class="cls-11" d="M1050.57,767.06h1a4.72,4.72,0,0,1,3.57,1.75c1,1.17,1.11,3.09.18,5.75h.08l-14.09,46.38L1019,764l0-.17h-1.25L996.6,824.57l-16.47-50.13h0q-1.26-4,.38-5.69a4.91,4.91,0,0,1,3.62-1.69h1v-1.25H959.4v1.25h1a9.69,9.69,0,0,1,6.5,2.13,13,13,0,0,1,3.58,5l26.19,68.12h1.13a36.58,36.58,0,0,1,.81-6.32c.45-2.12,1.1-4.65,1.93-7.56l16.24-45.66,23.29,59.54h1.24a37.21,37.21,0,0,1,.82-6.19q.69-3.2,2.06-7.69l18.08-53.91h.06a11.73,11.73,0,0,1,3.75-5.37,10,10,0,0,1,6.5-2.13h.88v-1.25h-22.89Z"/><path class="cls-11" d="M1177.14,837.79a13.55,13.55,0,0,1-4.63-6.07h0l-30.61-67.66h-1.12a15.94,15.94,0,0,1-.88,3.38c-.5,1.41-1.06,2.85-1.69,4.31s-1.39,3.19-2.31,5.19L1110.19,832a14.28,14.28,0,0,1-4.59,5.79,9.75,9.75,0,0,1-5.38,1.81h-1v1.25h23.89V839.6h-1a5.17,5.17,0,0,1-4-2.06c-1.12-1.31-1.22-3.18-.43-5.52l7-16.56h31.59l6.79,16.54c.79,2.36.69,4.22-.43,5.54a5.05,5.05,0,0,1-3.87,2.06h-1v1.25h25.64V839.6h-1A9.57,9.57,0,0,1,1177.14,837.79Zm-50.88-26.08,14.44-34.18,14,34.18Z"/><path class="cls-11" d="M1290.64,835.09c-1.47-1.41-3.07-3.08-4.82-5s-3.36-3.93-5.07-6.06-3.65-4.65-5.81-7.57a53.27,53.27,0,0,0-4.81-5.88,15.66,15.66,0,0,0-4.94-3.87,22.71,22.71,0,0,0,10.06-3.51,20.69,20.69,0,0,0,7-7.37,20.88,20.88,0,0,0,.74-18.26,17.31,17.31,0,0,0-5.06-6.38,23.12,23.12,0,0,0-8-4,37.44,37.44,0,0,0-10.57-1.38h-31.4v1.25h1.75a7,7,0,0,1,5,1.88,6.59,6.59,0,0,1,2,4.21v60.22a7,7,0,0,1-2,4.23,6.81,6.81,0,0,1-5,2h-1.75v1.25h25.65l-.13-1.25h-1.63a6.81,6.81,0,0,1-5-2,6.89,6.89,0,0,1-2.12-4.76V769.73c.51,0,1.88,0,4.12,0q4.38-.12,10.26.12a21.33,21.33,0,0,1,6.75,1.25,15.93,15.93,0,0,1,5.19,3.13,13.71,13.71,0,0,1,3.38,4.75,17.17,17.17,0,0,1,1.31,6.25,19.16,19.16,0,0,1-.13,3.88,15.3,15.3,0,0,1-.75,3.25c-1.16,3.51-2.77,6-4.81,7.51a13.83,13.83,0,0,1-6.57,2.68c-2.33.3-4.67.49-7,.57q-3.12.12-7.13,0v1.25a11,11,0,0,1,6.88,2.57,33.33,33.33,0,0,1,5.76,5.81l2.12,2.94q1.76,2.45,3.88,5.44l3.94,5.56c1.2,1.71,2,2.78,2.31,3.19a53.66,53.66,0,0,0,4.75,4.94,22.61,22.61,0,0,0,7.2,4.32,31.08,31.08,0,0,0,11.32,1.75h3.87V839.6a14,14,0,0,1-5.94-1.19A17.09,17.09,0,0,1,1290.64,835.09Z"/><path class="cls-11" d="M1407.77,770.31q-9-4.5-21.39-4.5h-41.77v1.25h1.5a7.11,7.11,0,0,1,5.06,1.94,6.87,6.87,0,0,1,2.19,4.94v58.78a7.19,7.19,0,0,1-2.13,4.82,6.67,6.67,0,0,1-5,2.06h-1.62v1.25h41.77q12.39,0,21.39-4.56a32.87,32.87,0,0,0,13.88-12.95q4.88-8.37,4.88-20t-4.88-20.07A32.39,32.39,0,0,0,1407.77,770.31ZM1409.2,828q-8.31,9.08-22.82,9.06h-24.89V769.56h24.89q14.5,0,22.82,9.07t8.32,24.7Q1417.52,819,1409.2,828Z"/><path class="cls-11" d="M1520.57,815.15a14,14,0,0,0-4.25-6.07l-25.26-19.5a16,16,0,0,1-2.94-3.26,11,11,0,0,1-1.5-3.32,12.77,12.77,0,0,1-.44-3.31c-.09-3.34,1.36-6.14,4.32-8.44a16.93,16.93,0,0,1,10.69-3.44q7.38,0,10.88,2.94a10,10,0,0,1,3.5,8.07h1.5l-.12-12.38-.06,0-.06-1.23h-4.41c-.48-.1-.87-.23-1.41-.32-1.3-.2-2.82-.39-4.57-.56s-3.79-.25-6.13-.25a22.23,22.23,0,0,0-10.44,2.44,19.61,19.61,0,0,0-7.44,6.56,16.36,16.36,0,0,0-2.76,9.26,20.93,20.93,0,0,0,1.26,6.87,15.41,15.41,0,0,0,4.75,6.64l25,19.26a12.59,12.59,0,0,1,4.5,10,12.12,12.12,0,0,1-4.44,9.82q-4.44,3.69-12.2,3.94a20.23,20.23,0,0,1-9.63-1.94,13.91,13.91,0,0,1-6.25-6.07,16.87,16.87,0,0,1-1.62-9.62h-1.51a36.45,36.45,0,0,0-1.19,5.37,39.75,39.75,0,0,0-.43,5.7,22.48,22.48,0,0,0,.37,4.43,19.64,19.64,0,0,0,6,3.32,40.2,40.2,0,0,0,7.81,1.93,52.85,52.85,0,0,0,7.82.63,23.39,23.39,0,0,0,11.19-2.69,21.34,21.34,0,0,0,8.07-7.31,17.62,17.62,0,0,0,2.88-10.13A23.28,23.28,0,0,0,1520.57,815.15Z"/><path class="cls-11" d="M673.74,883.67a56.33,56.33,0,0,0-17.52-24.26l-104.05-78a63.69,63.69,0,0,1-12.11-13,44,44,0,0,1-6.18-13.26,50.92,50.92,0,0,1-1.81-13.26q-.51-20,17.78-33.77t44-13.75q30.39,0,44.82,11.75t14.42,32.27h6.19l-.52-49.53-.23-.07-.28-4.93H641.12c-2.14-.44-4.37-.87-6.79-1.25q-8-1.24-18.8-2.25t-25.24-1q-23.7,0-43,9.76a80.12,80.12,0,0,0-30.65,26.26,63.94,63.94,0,0,0-11.33,37,82.42,82.42,0,0,0,5.15,27.52q5.15,14.5,19.58,26.51l103,77q9.78,8.51,14.17,18.26a52.54,52.54,0,0,1,4.38,21.76q0,24.52-18.29,39.27t-50.23,15.76q-22.67.49-39.66-7.75a56.82,56.82,0,0,1-25.76-24.27q-8.76-16-6.69-38.52h-6.18a134.29,134.29,0,0,0-4.9,21.51,153.85,153.85,0,0,0-1.8,22.77A84.48,84.48,0,0,0,499.62,970q9.78,8,24.73,13.26a170.24,170.24,0,0,0,32.2,7.76,226.21,226.21,0,0,0,32.19,2.5q25.23,0,46.1-10.76a87.09,87.09,0,0,0,33.23-29.26,68.51,68.51,0,0,0,11.85-40.53A90.41,90.41,0,0,0,673.74,883.67Z"/><path class="cls-11" d="M849.22,1032.9l-62-46.52a38.22,38.22,0,0,1-7.22-7.76,26.1,26.1,0,0,1-3.68-7.9,30.38,30.38,0,0,1-1.07-7.9q-.32-11.93,10.59-20.13t26.25-8.21q18.12,0,26.73,7t8.59,19.23h3.69l-.31-29.52-.14-.05-.17-2.94H840.21c-1.27-.26-2.6-.52-4-.74-3.18-.5-6.91-.94-11.21-1.35s-9.31-.59-15.05-.59a56.1,56.1,0,0,0-25.63,5.81A47.88,47.88,0,0,0,766,947a38.13,38.13,0,0,0-6.75,22.07,48.94,48.94,0,0,0,3.07,16.4q3.06,8.65,11.67,15.81l61.41,45.92a31.88,31.88,0,0,1,8.45,10.89,31.34,31.34,0,0,1,2.61,13q0,14.63-10.9,23.41t-29.94,9.39q-13.51.32-23.65-4.62a33.84,33.84,0,0,1-15.35-14.46q-5.22-9.54-4-23h-3.69a79.4,79.4,0,0,0-2.91,12.83,91.14,91.14,0,0,0-1.08,13.57,50.51,50.51,0,0,0,.92,10.58,48.1,48.1,0,0,0,14.74,7.9,101.08,101.08,0,0,0,19.19,4.63,134.84,134.84,0,0,0,19.2,1.49,59.15,59.15,0,0,0,27.48-6.41,51.92,51.92,0,0,0,19.8-17.45,40.77,40.77,0,0,0,7.07-24.15,54,54,0,0,0-3.69-17.45A33.61,33.61,0,0,0,849.22,1032.9Z"/><path class="cls-11" d="M1017.56,1052a28.57,28.57,0,0,1-10.93,8.58q-6.74,3.11-17.79,3.11H955.26V1009.2h37.56c3.09,0,5.38.89,6.85,2.68a9.65,9.65,0,0,1,2.21,6.33V1021h2.43V991h-2.43v2.79a9.67,9.67,0,0,1-2.21,6.33c-1.47,1.79-3.76,2.68-6.85,2.68H955.26v-54.5H1001a10.46,10.46,0,0,1,8.06,3.22,10.93,10.93,0,0,1,3,7.72v3.22h2.43V938.18a61.67,61.67,0,0,1-10.61,2.26,97.64,97.64,0,0,1-14.58,1.18H925.22v2.14h3.09a12.93,12.93,0,0,1,9.06,3.22,11.33,11.33,0,0,1,3.76,8.15v101.48a11.89,11.89,0,0,1-3.76,8.16,12.5,12.5,0,0,1-9.06,3.42h-3.09v2.15h89.69l12.15-30.68h-2.21A61.86,61.86,0,0,1,1017.56,1052Z"/><path class="cls-11" d="M1212.33,1068.19a17.34,17.34,0,0,1-9.28-3.1q-4.86-3.12-8.17-10.41h-.07l-54.06-116.07h-2a26.34,26.34,0,0,1-1.55,5.79c-.88,2.44-1.88,4.9-3,7.41s-2.47,5.47-4.09,8.9l-45.71,95.15c-2.23,4.22-4.8,7.34-7.75,9.23a17.63,17.63,0,0,1-9.5,3.1h-1.77v2.15h42.19v-2.15h-1.76a9.19,9.19,0,0,1-7.07-3.53c-1.92-2.2-2.18-5.27-.91-9.13l12.51-28.74h55.81l12.13,28.7c1.29,3.88,1,7-.89,9.17-2.07,2.36-4.35,3.53-6.85,3.53h-1.77v2.15h45.29v-2.15Zm-99.15-47.84,25.51-58.64,24.78,58.64Z"/><path class="cls-11" d="M1252.06,951.74c.29,15.53,2.71,31.19,9.31,44.77,6.21,13.82,17.51,24.14,31.44,28.52,13.64,4.52,28.91,3,40.71-4.58a39.29,39.29,0,0,0,14-14.55,25.62,25.62,0,0,0,2.87-9.33,70.15,70.15,0,0,0,.83-10.77c0-7.08-1.18-14.13-4.33-19.91a26.77,26.77,0,0,0-14.28-12.56A33.12,33.12,0,0,0,1312.8,952a34.57,34.57,0,0,0-17.21,10.41c-8,10-10.73,28.36.84,37a21.8,21.8,0,0,0,20,4.78c7-1.83,13.57-7.39,15.06-15.19-.21,8-6.39,15.22-14.13,18a26.09,26.09,0,0,1-24.2-3.19c-7.33-4.64-11.81-13.74-11.86-22.4s2-17.08,7.47-24.58a41.75,41.75,0,0,1,21.5-14.43,43.43,43.43,0,0,1,26.11.88,37.06,37.06,0,0,1,20.28,17.31c4.39,7.94,5.83,16.77,5.93,25.19a79.65,79.65,0,0,1-1.08,12.49,37.13,37.13,0,0,1-4.17,12.81,48.58,48.58,0,0,1-18.23,18.5,56.16,56.16,0,0,1-49.25,3.69c-7.69-3.1-15.1-7.5-20.8-13.71a60.67,60.67,0,0,1-12.71-20.94A100,100,0,0,1,1252.06,951.74Z"/><path class="cls-11" d="M1266.79,1047.93c14.42,6,29.44,9.49,44.16,9.53a75.72,75.72,0,0,0,41-11.86,64.05,64.05,0,0,0,26.94-32.35c5.09-13.64,6.19-29.14,4.39-44.62a73.31,73.31,0,0,1,4,47.23c-3.91,16.18-15.16,30.59-29.28,39.29a77.31,77.31,0,0,1-22.91,9.7,73.73,73.73,0,0,1-24.65,1.47A81.71,81.71,0,0,1,1266.79,1047.93Z"/></g></g></svg>