<svg xmlns="http://www.w3.org/2000/svg" viewBox="0 0 1024 955.59"><defs><style>.cls-1{opacity:0.1;}.cls-2{fill:#f0cf51;}.cls-3{fill:#d6b13c;}.cls-4{fill:#e6c441;}.cls-5{fill:#7a6853;}.cls-6{fill:#fff;}.cls-7{fill:#a02a2a;}.cls-8{fill:#e55955;}</style></defs><g id="Слой_2" data-name="Слой 2"><g id="Слой_1-2" data-name="Слой 1"><ellipse class="cls-1" cx="512" cy="412.16" rx="298.8" ry="104.98"/><path class="cls-2" d="M566.22,99.76l54.33-86.94A27.08,27.08,0,0,1,650.9,1c23.34,6.63,63.16,27.37,104.78,91.31a6.43,6.43,0,0,1-6.63,9.81c-30.43-6.06-100.36-9.73-154.25,64.75Z"/><path class="cls-3" d="M573.65,117.21l21.13,49.65C648.7,92.36,718.62,96.07,749,102.11A6.45,6.45,0,0,0,756.59,97a6.37,6.37,0,0,0-.4-3.76,5.41,5.41,0,0,0-.51-1c-27.52-37.54-77.09-62.25-100.42-68.88a27.19,27.19,0,0,0-30.4,11.78Z"/><path class="cls-2" d="M457.78,99.76l-54.23-87A27.11,27.11,0,0,0,373.1,1c-23.34,6.63-63.16,27.37-104.76,91.31a6.41,6.41,0,0,0,6.61,9.81c30.44-6.06,100.36-9.73,154.25,64.75Z"/><path class="cls-3" d="M450.35,117.21l-21.13,49.65C375.3,92.36,305.38,96.07,275,102.11a6.4,6.4,0,0,1-6.65-9.73C295.85,54.84,345.4,30.13,368.75,23.5a27.21,27.21,0,0,1,30.41,11.77Z"/><ellipse class="cls-4" cx="373.48" cy="345.5" rx="44.62" ry="34.12" transform="translate(-135.3 343.62) rotate(-42.56)"/><ellipse class="cls-4" cx="650.52" cy="345.59" rx="34.12" ry="44.62" transform="translate(-44.01 591) rotate(-47.44)"/><ellipse class="cls-2" cx="512" cy="250.02" rx="178.5" ry="178.48"/><path class="cls-4" d="M385.82,191.32c-8.64,18.49-21.58,32-33.28,36.15-5.27,1.86-12.09.22-17.11-3.67a177.87,177.87,0,0,1,43.1-92h0c6.12,1.39,11.69,5.56,13.61,10.75C396.47,154.22,394.45,172.8,385.82,191.32Z"/><path class="cls-5" d="M338.52,212.76a9.72,9.72,0,0,0,11.92,2.68c7.92-4.17,17.37-15.63,24.39-30.69s9.73-29.67,7.83-38.37a9.8,9.8,0,0,0-9.73-7.44l-84.66.56a4.91,4.91,0,0,0-3.76,8Z"/><path class="cls-4" d="M688.57,223.91c-5,3.92-11.87,5.56-17.14,3.71-11.65-4.17-24.64-17.66-33.27-36.15s-10.63-37.11-6.3-48.73c2-5.3,7.67-9.47,13.9-10.81A177.56,177.56,0,0,1,688.57,223.91Z"/><path class="cls-5" d="M685.48,212.89a9.72,9.72,0,0,1-11.94,2.67c-7.9-4.17-17.35-15.62-24.37-30.68s-9.73-29.66-7.83-38.38a9.73,9.73,0,0,1,9.73-7.42l84.68.54a4.92,4.92,0,0,1,3.74,8Z"/><path class="cls-4" d="M544.93,172.56l-22.49,11.25a23.28,23.28,0,0,1-20.86,0l-22.52-11.26a8.61,8.61,0,0,1,0-15.4l22.51-11.24a23.19,23.19,0,0,1,20.85,0l22.5,11.26a8.59,8.59,0,0,1,0,15.39Z"/><path class="cls-5" d="M538.12,164.84l-17.84,8.93a18.43,18.43,0,0,1-16.5,0l-17.84-8.93a6.81,6.81,0,0,1,0-12.19l17.84-8.93a18.43,18.43,0,0,1,16.5,0l17.84,8.87a6.81,6.81,0,0,1,0,12.25Z"/><path class="cls-4" d="M538.12,123.12,520.28,132a18.49,18.49,0,0,1-16.5,0l-17.84-8.93a6.82,6.82,0,0,1,0-12.2L503.78,102a18.49,18.49,0,0,1,16.5,0l17.84,8.91a6.83,6.83,0,0,1,0,12.24Z"/><path class="cls-5" d="M532.2,115.61l-13.8,7a14.3,14.3,0,0,1-12.75,0l-13.79-7a5.28,5.28,0,0,1,0-9.43l13.79-7a14.23,14.23,0,0,1,12.75,0l13.8,7a5.28,5.28,0,0,1,0,9.43Z"/><path class="cls-4" d="M530.71,81.5l-12.78,6.39a13.17,13.17,0,0,1-11.8,0L493.34,81.5a4.88,4.88,0,0,1,0-8.74l12.79-6.38a13.15,13.15,0,0,1,11.82,0l12.76,6.38a4.89,4.89,0,0,1,0,8.74Z"/><path class="cls-5" d="M526.94,76.69,516.75,81.8a10.65,10.65,0,0,1-9.44,0L497.1,76.69a3.91,3.91,0,0,1,0-7l10.21-5.1a10.53,10.53,0,0,1,9.44,0l10.19,5.1A3.9,3.9,0,0,1,528.63,75,3.84,3.84,0,0,1,526.94,76.69Z"/><circle class="cls-4" cx="451.35" cy="253.85" r="41.53"/><circle class="cls-4" cx="446.47" cy="248.97" r="36.65"/><path class="cls-6" d="M483.14,248.61a36.67,36.67,0,0,1-73.31,1.76c0-.46,0-.92,0-1.38v-.29a18,18,0,0,1,7.87-14.48,52.12,52.12,0,0,1,58.5.68,17.16,17.16,0,0,1,6.95,13.3Z"/><circle class="cls-5" cx="446.47" cy="262.24" r="18.46"/><circle class="cls-6" cx="440.83" cy="253.69" r="3.71"/><circle class="cls-6" cx="434.81" cy="259.72" r="2.32"/><circle class="cls-4" cx="572.57" cy="253.85" r="41.53"/><circle class="cls-4" cx="577.43" cy="248.96" r="36.65"/><path class="cls-6" d="M614.08,248.6a36.66,36.66,0,1,1-73.3,1.75c0-.46,0-.92,0-1.38v-.29a17.91,17.91,0,0,1,8-14.47,52.11,52.11,0,0,1,58.49.68,17.11,17.11,0,0,1,6.95,13.29A.76.76,0,0,0,614.08,248.6Z"/><circle class="cls-5" cx="577.45" cy="262.21" r="18.46"/><circle class="cls-6" cx="571.82" cy="253.67" r="3.71"/><circle class="cls-6" cx="565.78" cy="259.69" r="2.32"/><path class="cls-5" d="M554.59,195.18a35,35,0,0,1,20.34-10A44.57,44.57,0,0,1,598.3,188l5.31,2.66a39,39,0,0,1,4.88,3.25,51.31,51.31,0,0,1,8.5,7.83,76.15,76.15,0,0,1,6.53,9.23,79.87,79.87,0,0,1,4.3,10.4,94,94,0,0,1-8.69-6.68c-3-2-5.56-4.26-8.34-6.18a67.29,67.29,0,0,0-8.35-5.32,76.79,76.79,0,0,0-8.57-4.38,64.88,64.88,0,0,0-18.5-4.55A80,80,0,0,0,554.59,195.18Z"/><path class="cls-5" d="M469.3,195.18a80.11,80.11,0,0,0-20.69-.87,65.22,65.22,0,0,0-18.49,4.54,76.93,76.93,0,0,0-8.58,4.38c-3,1.39-5.56,3.56-8.34,5.33s-5.38,4.17-8.34,6.17a98.66,98.66,0,0,1-8.68,6.69A76.46,76.46,0,0,1,400.37,211a75.3,75.3,0,0,1,6.52-9.23,52.08,52.08,0,0,1,8.49-7.83,40,40,0,0,1,4.9-3.25l5.31-2.66A44.47,44.47,0,0,1,449,185.13,35,35,0,0,1,469.3,195.18Z"/><path class="cls-7" d="M600.34,406.11a178.55,178.55,0,0,1-176.68,0C435,380.82,470.27,362.4,512,362.4S589,380.82,600.34,406.11Z"/><path class="cls-8" d="M531.48,391.74v56.71a4.17,4.17,0,0,1-4.21,4.13,4.31,4.31,0,0,1-1.66-.36l-8.06-3.67a13.5,13.5,0,0,0-11.13,0l-8,3.67a4.17,4.17,0,0,1-5.87-3.78v-56.7Z"/><path class="cls-6" d="M594,397a4.89,4.89,0,0,0-1.32-6c-3.53-2.71-10.75-4.56-19-4.56s-15.5,1.85-19,4.56a4.91,4.91,0,0,0-1.31,6l18.07,38.25a2.46,2.46,0,0,0,4.44,0Z"/><path class="cls-6" d="M470.73,397a4.91,4.91,0,0,0-1.31-6c-3.54-2.71-10.74-4.56-19.06-4.56s-15.5,1.85-19.05,4.56a4.92,4.92,0,0,0-1.3,6l18.14,38.25a2.45,2.45,0,0,0,3.26,1.16,2.42,2.42,0,0,0,1.16-1.16Z"/><path class="cls-4" d="M618.86,383.17h0a48.65,48.65,0,0,1-62.19,29.27h0a131.75,131.75,0,0,0-89.32,0h0a48.65,48.65,0,0,1-62.19-29.27h0A48.65,48.65,0,0,1,434.35,321h0a229,229,0,0,1,155.18,0h0A48.66,48.66,0,0,1,618.86,383.17Z"/><ellipse class="cls-5" cx="583.76" cy="372.79" rx="16.85" ry="11.5" transform="translate(-85.65 550.63) rotate(-47.44)"/><ellipse class="cls-5" cx="440.24" cy="372.82" rx="11.5" ry="16.85" transform="translate(-136.19 395.97) rotate(-42.56)"/><path class="cls-6" d="M295.48,677.24l-31.05-33.79,26.77-28.62h0a13.07,13.07,0,0,1,5.44-3.75,20,20,0,0,1,7.19-1.26h.5v-1.24H278.85v1.24H280a3.43,3.43,0,0,1,3.18,1.57,2.73,2.73,0,0,1-.43,3.31h0l-26.93,31.65q4,4.38,7.13,7.82t6.7,7.25q3.55,3.81,6.68,7.25t7,7.82a19,19,0,0,0,4.82,3.94,22.09,22.09,0,0,0,5.12,2.13,28.91,28.91,0,0,0,4.76.87c1.45.13,2.68.19,3.68.19h4.64v-1.25A14.93,14.93,0,0,1,300,681,15.39,15.39,0,0,1,295.48,677.24Z"/><path class="cls-6" d="M253.58,680.37a6.35,6.35,0,0,1-2.12-4.76v-59a6.29,6.29,0,0,1,2.12-4.82,7.37,7.37,0,0,1,5.13-1.94h1.5v-1.24H234.57v1.24h1.51a7.32,7.32,0,0,1,5.12,1.94,6.66,6.66,0,0,1,2.25,4.82v59a6.75,6.75,0,0,1-2.25,4.76,7.2,7.2,0,0,1-5.12,2h-1.51v1.25h25.64v-1.25h-1.37A7.4,7.4,0,0,1,253.58,680.37Z"/><path class="cls-6" d="M398.53,609.82H400a4.3,4.3,0,0,1,4,2.13,4.43,4.43,0,0,1-.12,4.62l-19.09,31.6L367,616.46h0A4.36,4.36,0,0,1,367,612a4.16,4.16,0,0,1,3.95-2.2h1.5v-1.24h-29v1.24h1.5a12.92,12.92,0,0,1,6.57,1.7,15.34,15.34,0,0,1,4.94,4.56h.06l23.08,36.36v23.16a6.85,6.85,0,0,1-2.2,4.76,7,7,0,0,1-5.06,2h-1.5v1.25h25.64v-1.25h-1.5a7,7,0,0,1-5.06-2,6.9,6.9,0,0,1-2.2-4.76v-23l24-36.42h.18a16.64,16.64,0,0,1,4.82-4.45,12.07,12.07,0,0,1,6.56-1.94h1.51v-1.24H398.53Z"/><path class="cls-6" d="M552.49,609.82h1a4.7,4.7,0,0,1,3.57,1.76c1,1.17,1.1,3.08.18,5.75h.07l-14.08,46.38-22.36-57,0-.18H519.6l-21.08,60.77L482,617.21h0c-.84-2.67-.71-4.57.37-5.69a4.94,4.94,0,0,1,3.63-1.7h1v-1.24H461.32v1.24h1a9.69,9.69,0,0,1,6.5,2.13,13.22,13.22,0,0,1,3.58,5l26.18,68.12h1.13a38.65,38.65,0,0,1,.81-6.32c.46-2.12,1.11-4.65,1.94-7.56l16.24-45.67L542,685.12h1.24a36.94,36.94,0,0,1,.82-6.19c.46-2.13,1.14-4.69,2.06-7.69l18.08-53.91h.06A11.76,11.76,0,0,1,568,612a10,10,0,0,1,6.5-2.13h.88v-1.24H552.49Z"/><path class="cls-6" d="M679.05,680.56a13.66,13.66,0,0,1-4.62-6.07h0l-30.6-67.67h-1.12a16.64,16.64,0,0,1-.88,3.39c-.51,1.41-1.06,2.85-1.69,4.31s-1.4,3.19-2.31,5.19L612.1,674.77a14.27,14.27,0,0,1-4.58,5.79,9.83,9.83,0,0,1-5.38,1.81h-1v1.25H625v-1.25h-1a5.14,5.14,0,0,1-4-2.07c-1.12-1.31-1.22-3.17-.43-5.51l7-16.56h31.6L665,674.77c.79,2.35.69,4.22-.43,5.53a5.06,5.06,0,0,1-3.88,2.07h-1v1.25h25.64v-1.25h-1A9.71,9.71,0,0,1,679.05,680.56Zm-50.87-26.08,14.44-34.18,14,34.18Z"/><path class="cls-6" d="M792.56,677.86c-1.47-1.41-3.07-3.08-4.82-5s-3.36-3.94-5.07-6.07-3.65-4.64-5.81-7.56a52.36,52.36,0,0,0-4.81-5.88,15.88,15.88,0,0,0-4.94-3.88,22.79,22.79,0,0,0,10.06-3.5,20.65,20.65,0,0,0,6.94-7.37,20.84,20.84,0,0,0,.75-18.26A17.45,17.45,0,0,0,779.8,614a23.52,23.52,0,0,0-8-4,37.8,37.8,0,0,0-10.56-1.37h-31.4v1.24h1.75a7,7,0,0,1,5,1.88,6.64,6.64,0,0,1,2,4.22v60.22a7,7,0,0,1-2,4.23,6.81,6.81,0,0,1-5,2h-1.75v1.25h25.64l-.13-1.25h-1.62a6.79,6.79,0,0,1-5-2,6.89,6.89,0,0,1-2.12-4.76V612.5c.51,0,1.87,0,4.12,0q4.37-.13,10.26.12a21.11,21.11,0,0,1,6.75,1.25,16.08,16.08,0,0,1,5.19,3.12,14.11,14.11,0,0,1,3.38,4.76,17.38,17.38,0,0,1,1.31,6.25,19.91,19.91,0,0,1-.13,3.88,15.3,15.3,0,0,1-.75,3.25c-1.17,3.51-2.77,6-4.81,7.51a13.83,13.83,0,0,1-6.57,2.68c-2.33.3-4.67.48-7,.57q-3.12.12-7.13,0v1.25a11,11,0,0,1,6.88,2.56,33,33,0,0,1,5.75,5.82q.38.49,2.13,2.94c1.16,1.63,2.46,3.43,3.87,5.43l3.94,5.57c1.21,1.71,2,2.78,2.32,3.19a53.66,53.66,0,0,0,4.75,4.94,22.56,22.56,0,0,0,7.19,4.32,31.15,31.15,0,0,0,11.32,1.75h3.88v-1.25a14.07,14.07,0,0,1-6-1.19A16.9,16.9,0,0,1,792.56,677.86Z"/><path class="cls-6" d="M909.68,613.08q-9-4.5-21.38-4.5H846.53v1.24H848a7.11,7.11,0,0,1,5.06,1.94,6.89,6.89,0,0,1,2.19,5v58.78a7.14,7.14,0,0,1-2.13,4.81,6.66,6.66,0,0,1-5,2.07h-1.62v1.25H888.3q12.39,0,21.38-4.57a32.88,32.88,0,0,0,13.89-12.94q4.88-8.37,4.88-20T923.57,626A32.39,32.39,0,0,0,909.68,613.08Zm1.44,57.72q-8.31,9.08-22.82,9.06H863.41V612.33H888.3q14.51,0,22.82,9.07t8.32,24.7Q919.44,661.73,911.12,670.8Z"/><path class="cls-6" d="M1022.49,657.92a14,14,0,0,0-4.25-6.07L993,632.34a16,16,0,0,1-2.94-3.25,11,11,0,0,1-1.49-3.32,12.77,12.77,0,0,1-.44-3.31,10,10,0,0,1,4.32-8.44,16.93,16.93,0,0,1,10.69-3.44q7.38,0,10.88,2.94a10,10,0,0,1,3.5,8.07h1.5l-.12-12.38-.06,0-.07-1.24h-4.4c-.48-.1-.87-.22-1.41-.31-1.3-.2-2.82-.4-4.57-.56s-3.79-.26-6.13-.26a22.2,22.2,0,0,0-10.44,2.45,19.52,19.52,0,0,0-7.44,6.56,16.35,16.35,0,0,0-2.76,9.25,21.18,21.18,0,0,0,1.25,6.88,15.44,15.44,0,0,0,4.76,6.64l25,19.25a12.59,12.59,0,0,1,4.51,10,12.12,12.12,0,0,1-4.44,9.82q-4.45,3.69-12.2,3.94a20.32,20.32,0,0,1-9.63-1.94,14,14,0,0,1-6.25-6.07A17,17,0,0,1,983,664h-1.5a35.35,35.35,0,0,0-1.19,5.38,39.79,39.79,0,0,0-.44,5.69,21.69,21.69,0,0,0,.38,4.44,19.85,19.85,0,0,0,6,3.32,40.2,40.2,0,0,0,7.81,1.93,52.85,52.85,0,0,0,7.82.63,23.51,23.51,0,0,0,11.19-2.69,21.5,21.5,0,0,0,8.07-7.31,17.62,17.62,0,0,0,2.88-10.13A23.22,23.22,0,0,0,1022.49,657.92Z"/><path class="cls-6" d="M175.65,726.43a56.35,56.35,0,0,0-17.51-24.26l-104.06-78a63.68,63.68,0,0,1-12.1-13,44,44,0,0,1-6.18-13.25A50.92,50.92,0,0,1,34,584.61q-.51-20,17.78-33.77t44-13.75q30.39,0,44.81,11.75t14.43,32.27h6.18l-.52-49.53-.23-.07-.28-4.93H143c-2.14-.45-4.37-.87-6.79-1.25q-8-1.25-18.8-2.25t-25.25-1q-23.7,0-43,9.75T18.54,558.09a63.9,63.9,0,0,0-11.33,37,82.11,82.11,0,0,0,5.15,27.51q5.15,14.52,19.58,26.51l103,77.05q9.78,8.5,14.17,18.26a52.65,52.65,0,0,1,4.38,21.75q0,24.52-18.29,39.28T85,821.23q-22.66.51-39.66-7.74a56.77,56.77,0,0,1-25.76-24.27q-8.77-16-6.69-38.52H6.69A134.09,134.09,0,0,0,1.8,772.21,153.83,153.83,0,0,0,0,795a84.52,84.52,0,0,0,1.54,17.76q9.78,8,24.73,13.26a170.9,170.9,0,0,0,32.19,7.75,225,225,0,0,0,32.2,2.51,99.25,99.25,0,0,0,46.1-10.76A87.09,87.09,0,0,0,170,796.23a68.58,68.58,0,0,0,11.85-40.53A90.54,90.54,0,0,0,175.65,726.43Z"/><path class="cls-6" d="M351.14,875.67l-62-46.52a38.49,38.49,0,0,1-7.22-7.76,26,26,0,0,1-3.68-7.91,30.27,30.27,0,0,1-1.08-7.89q-.3-11.93,10.6-20.14t26.25-8.2q18.12,0,26.72,7t8.6,19.23H353l-.3-29.52-.14,0-.17-2.94H342.13c-1.27-.27-2.6-.52-4-.75q-4.77-.74-11.21-1.34t-15.05-.59a56,56,0,0,0-25.64,5.81,47.92,47.92,0,0,0-18.27,15.66,38.06,38.06,0,0,0-6.76,22.07,49,49,0,0,0,3.08,16.4q3.06,8.65,11.66,15.8L337.32,890a31.88,31.88,0,0,1,8.45,10.89,31.27,31.27,0,0,1,2.61,13q0,14.63-10.9,23.41t-29.94,9.39q-13.53.3-23.65-4.62a33.87,33.87,0,0,1-15.36-14.46q-5.2-9.54-4-23h-3.69A79.4,79.4,0,0,0,258,917.42,91.14,91.14,0,0,0,256.87,931a50.58,50.58,0,0,0,.92,10.58,47.86,47.86,0,0,0,14.74,7.9,101.84,101.84,0,0,0,19.19,4.63,134.84,134.84,0,0,0,19.2,1.49,59.15,59.15,0,0,0,27.48-6.41,51.92,51.92,0,0,0,19.8-17.45,40.69,40.69,0,0,0,7.06-24.15,53.75,53.75,0,0,0-3.68-17.45A33.61,33.61,0,0,0,351.14,875.67Z"/><path class="cls-6" d="M519.48,894.76a28.67,28.67,0,0,1-10.93,8.59q-6.75,3.1-17.79,3.11H457.18V852h37.56q4.63,0,6.85,2.69A9.62,9.62,0,0,1,503.8,861v2.79h2.42v-30H503.8v2.79a9.62,9.62,0,0,1-2.21,6.32c-1.48,1.8-3.76,2.69-6.85,2.69H457.18V791h45.73a10.46,10.46,0,0,1,8.06,3.22,11,11,0,0,1,3,7.72v3.22h2.43V781a61,61,0,0,1-10.61,2.25,96.33,96.33,0,0,1-14.58,1.18H427.14v2.15h3.09a13,13,0,0,1,9.06,3.21A11.32,11.32,0,0,1,443,797.9V899.38a11.8,11.8,0,0,1-3.75,8.15,12.47,12.47,0,0,1-9.06,3.43h-3.09v2.15h89.69L529,882.43h-2.21A61.49,61.49,0,0,1,519.48,894.76Z"/><path class="cls-6" d="M714.25,911a17.25,17.25,0,0,1-9.28-3.11q-4.86-3.11-8.17-10.4h-.07L642.67,781.38h-2a26.93,26.93,0,0,1-1.55,5.79q-1.33,3.65-3,7.4t-4.09,8.9l-45.71,95.16c-2.23,4.22-4.8,7.33-7.75,9.22a17.59,17.59,0,0,1-9.5,3.11h-1.77v2.15h42.19V911h-1.76a9.16,9.16,0,0,1-7.07-3.54c-1.92-2.19-2.18-5.26-.91-9.13l12.5-28.73h55.82l12.13,28.69c1.28,3.89,1,7-.89,9.17-2.07,2.37-4.35,3.54-6.85,3.54h-1.77v2.15H716V911Zm-99.16-47.84,25.52-58.64,24.78,58.64Z"/><path class="cls-6" d="M754,794.5c.29,15.53,2.71,31.19,9.31,44.78,6.21,13.82,17.51,24.14,31.44,28.52,13.64,4.52,28.91,3,40.71-4.58a39.24,39.24,0,0,0,14-14.56,25.51,25.51,0,0,0,2.87-9.32,69,69,0,0,0,.82-10.77c0-7.09-1.18-14.13-4.32-19.91a26.76,26.76,0,0,0-14.28-12.56,33.21,33.21,0,0,0-19.83-1.36,34.67,34.67,0,0,0-17.21,10.41c-8,10-10.73,28.36.84,37a21.8,21.8,0,0,0,20,4.78c7-1.83,13.56-7.39,15.06-15.2-.21,8-6.39,15.23-14.13,18a26.06,26.06,0,0,1-24.2-3.18c-7.33-4.64-11.81-13.75-11.86-22.41s2-17.08,7.47-24.57a41.76,41.76,0,0,1,21.49-14.43,43.46,43.46,0,0,1,26.12.87,37.12,37.12,0,0,1,20.28,17.32c4.39,7.94,5.83,16.77,5.93,25.19a80.86,80.86,0,0,1-1.08,12.49,37,37,0,0,1-4.17,12.8A48.61,48.61,0,0,1,841,872.36a56.2,56.2,0,0,1-49.25,3.69c-7.69-3.1-15.1-7.5-20.8-13.71a60.79,60.79,0,0,1-12.72-20.94A100.13,100.13,0,0,1,754,794.5Z"/><path class="cls-6" d="M768.71,890.7c14.42,6,29.44,9.49,44.15,9.52a75.6,75.6,0,0,0,41-11.85,64.07,64.07,0,0,0,27-32.35c5.09-13.65,6.18-29.14,4.39-44.62a73.31,73.31,0,0,1,4,47.23c-3.9,16.18-15.15,30.59-29.28,39.29a77.14,77.14,0,0,1-22.9,9.7,73.73,73.73,0,0,1-24.65,1.47A81.71,81.71,0,0,1,768.71,890.7Z"/></g></g></svg>