<svg xmlns="http://www.w3.org/2000/svg" viewBox="0 0 512 512"><defs><style>.cls-1{fill:#009df9;}.cls-2,.cls-6{fill:#00aefb;}.cls-3{fill:#00befc;}.cls-4{fill:#17cdfc;}.cls-5{fill:#70dcfd;}.cls-6{opacity:0.3;}.cls-7{fill:#f0cf51;}.cls-8{fill:#d6b13c;}.cls-9{fill:#e6c441;}.cls-10{fill:#7a6853;}.cls-11{fill:#fff;}.cls-12{fill:#a02a2a;}.cls-13{fill:#e55955;}</style></defs><g id="Слой_2" data-name="Слой 2"><g id="Слой_1-2" data-name="Слой 1"><rect class="cls-1" x="0.01" width="511.99" height="512"/><path class="cls-2" d="M512,118.93V261.06a67,67,0,0,1-27.82,6h-407A67.18,67.18,0,0,1,64,265.73C35.24,260.05,13.7,236.36,13.7,208V179.69c0-39.89,34.79-72.23,77.72-72.23a83.53,83.53,0,0,1,16.4,1.63c11.76-26,39.41-44.3,71.67-44.3a83.4,83.4,0,0,1,26.7,4.38c17.4-24,46.9-39.84,80.41-39.84,37.14,0,69.37,19.46,85.6,48a103.28,103.28,0,0,1,11.18-.62c29.57,0,56,12.33,73.78,31.75a84.12,84.12,0,0,1,12.81-1A81.44,81.44,0,0,1,512,118.93Z"/><path class="cls-3" d="M304.39,256.92v21.43A44.67,44.67,0,0,1,259.74,323H0V194.33A54.82,54.82,0,0,1,45.47,170a54.07,54.07,0,0,1,18.78,3.32A68.07,68.07,0,0,1,181,179.47a73.13,73.13,0,0,1,7.88-.46,68,68,0,0,1,51.87,24,55.67,55.67,0,0,1,9-.75,54.64,54.64,0,0,1,51.63,36.77A54,54,0,0,1,304.39,256.92Z"/><path class="cls-4" d="M512,256.64V419.86H206.88c-29.84,0-54-20-54-44.67V353.77A48,48,0,0,1,164.36,323c.77-.95,1.59-1.88,2.45-2.78,12.08-12.83,30.95-21.09,52.15-21.09a80.68,80.68,0,0,1,13.94,1.21c9.4-18.49,30.76-31.81,56.1-33.33a60.7,60.7,0,0,1,12.37-28c14.64-18.8,40.16-31.24,69.2-31.24,33.47,0,62.24,16.51,75.1,40.22a98.62,98.62,0,0,1,21.55-2.38A94.2,94.2,0,0,1,512,256.64Z"/><path class="cls-5" d="M512,365.79V512H0V288.36a57,57,0,0,1,16.93,7.3c6-27.64,23.73-50.09,47-60.2a69.29,69.29,0,0,1,58.8,1.46c22,10.85,38.6,32.9,44.06,59.75.24,1,.44,2.05.59,3.11s.33,1.93.46,2.9c28.05,9,49.54,35.37,54.65,68.11a55.8,55.8,0,0,1,40.29,3.85h0c.55-.67,1.1-1.33,1.67-2,.73-.87,1.5-1.71,2.29-2.5a60.83,60.83,0,0,1,43.77-18.56,61.76,61.76,0,0,1,11.61,1.11,76,76,0,0,1,143.7,5,76.72,76.72,0,0,1,10.68-.76A75.08,75.08,0,0,1,512,365.79Z"/><ellipse class="cls-6" cx="256" cy="401.64" rx="174.79" ry="61.41"/><path class="cls-7" d="M295,165l39.07-62.53A19.48,19.48,0,0,1,355.9,94c16.79,4.77,45.43,19.68,75.36,65.67a4.63,4.63,0,0,1-4.77,7.06c-21.88-4.36-72.18-7-110.94,46.57Z"/><path class="cls-8" d="M300.34,177.55l15.2,35.71c38.78-53.58,89.07-50.91,110.94-46.57a4.63,4.63,0,0,0,5.15-6.36,3.85,3.85,0,0,0-.37-.68c-19.79-27-55.44-44.77-72.22-49.54a19.56,19.56,0,0,0-21.87,8.47Z"/><path class="cls-7" d="M217,165,178,102.44A19.5,19.5,0,0,0,156.1,94c-16.79,4.77-45.43,19.68-75.35,65.67a4.62,4.62,0,0,0,4.76,7.06c21.89-4.36,72.18-7,110.94,46.57Z"/><path class="cls-8" d="M211.66,177.55l-15.2,35.71c-38.78-53.58-89.07-50.91-110.94-46.57a4.6,4.6,0,0,1-4.78-7c19.8-27,55.44-44.77,72.23-49.54a19.57,19.57,0,0,1,21.87,8.47Z"/><ellipse class="cls-9" cx="156.37" cy="341.77" rx="32.09" ry="24.54" transform="translate(-189.96 195.77) rotate(-42.56)"/><ellipse class="cls-9" cx="355.64" cy="341.77" rx="24.54" ry="32.09" transform="translate(-136.64 372.6) rotate(-47.44)"/><ellipse class="cls-7" cx="256" cy="273.07" rx="128.38" ry="128.37"/><path class="cls-9" d="M165.25,230.85c-6.21,13.3-15.52,23-23.93,26-3.79,1.34-8.7.16-12.31-2.64a127.91,127.91,0,0,1,31-66.16h0c4.4,1,8.41,4,9.79,7.73C172.91,204.17,171.46,217.53,165.25,230.85Z"/><path class="cls-10" d="M131.23,246.27a7,7,0,0,0,8.58,1.93c5.69-3,12.49-11.24,17.54-22.07s7-21.34,5.63-27.6a7.05,7.05,0,0,0-7-5.35l-60.89.4a3.53,3.53,0,0,0-2.7,5.78Z"/><path class="cls-9" d="M383,254.29c-3.61,2.82-8.54,4-12.33,2.67-8.38-3-17.72-12.7-23.93-26s-7.64-26.69-4.53-35.05c1.41-3.81,5.52-6.81,10-7.77A127.69,127.69,0,0,1,383,254.29Z"/><path class="cls-10" d="M380.78,246.37a7,7,0,0,1-8.59,1.92c-5.68-3-12.48-11.24-17.53-22.07s-7-21.33-5.63-27.6a7,7,0,0,1,7-5.34l60.9.39a3.53,3.53,0,0,1,2.69,5.78Z"/><path class="cls-9" d="M279.67,217.36l-16.18,8.09a16.72,16.72,0,0,1-15,0l-16.2-8.1a6.19,6.19,0,0,1,0-11.07l16.19-8.09a16.71,16.71,0,0,1,15,0l16.18,8.1A6.18,6.18,0,0,1,279.67,217.36Z"/><path class="cls-10" d="M274.77,211.81l-12.83,6.42a13.26,13.26,0,0,1-11.87,0l-12.83-6.42a4.9,4.9,0,0,1,0-8.77l12.83-6.42a13.26,13.26,0,0,1,11.87,0L274.77,203A4.9,4.9,0,0,1,274.77,211.81Z"/><path class="cls-9" d="M274.77,181.8l-12.83,6.41a13.29,13.29,0,0,1-11.87,0l-12.83-6.42a4.91,4.91,0,0,1,0-8.78l12.83-6.42a13.29,13.29,0,0,1,11.87,0L274.77,173A4.91,4.91,0,0,1,274.77,181.8Z"/><path class="cls-10" d="M270.51,176.4l-9.92,5a10.27,10.27,0,0,1-9.17,0l-9.92-5a3.79,3.79,0,0,1,0-6.78l9.92-5a10.21,10.21,0,0,1,9.17,0l9.92,5A3.79,3.79,0,0,1,270.51,176.4Z"/><path class="cls-9" d="M269.44,151.87l-9.19,4.59a9.47,9.47,0,0,1-8.49,0l-9.2-4.59a3.52,3.52,0,0,1,0-6.29l9.2-4.59a9.49,9.49,0,0,1,8.5,0l9.18,4.59A3.52,3.52,0,0,1,269.44,151.87Z"/><path class="cls-10" d="M266.73,148.41l-7.33,3.67a7.65,7.65,0,0,1-6.79,0l-7.34-3.67a2.81,2.81,0,0,1,0-5l7.34-3.67a7.58,7.58,0,0,1,6.79,0l7.33,3.67A2.81,2.81,0,0,1,266.73,148.41Z"/><circle class="cls-9" cx="299.14" cy="275.83" r="29.87"/><circle class="cls-9" cx="211.96" cy="275.83" r="29.87"/><circle class="cls-11" cx="208.45" cy="272.32" r="26.36"/><circle class="cls-9" cx="208.45" cy="272.32" r="26.36"/><path class="cls-11" d="M234.82,272.06a26.37,26.37,0,1,1-52.73.27v-.21a12.93,12.93,0,0,1,5.66-10.41,37.47,37.47,0,0,1,42.07.49,12.31,12.31,0,0,1,5,9.56Z"/><circle class="cls-10" cx="208.45" cy="281.86" r="13.28"/><circle class="cls-11" cx="204.39" cy="275.71" r="2.67"/><circle class="cls-11" cx="200.06" cy="280.05" r="1.67"/><circle class="cls-11" cx="302.64" cy="272.31" r="26.36"/><circle class="cls-9" cx="302.64" cy="272.31" r="26.36"/><path class="cls-11" d="M329,272.05a26.37,26.37,0,1,1-52.73.27v-.21A12.9,12.9,0,0,1,282,261.7a37.47,37.47,0,0,1,42.07.49,12.3,12.3,0,0,1,5,9.56C329,271.85,329,272,329,272.05Z"/><circle class="cls-10" cx="302.65" cy="281.84" r="13.28"/><path class="cls-10" d="M286.22,233.63a25.21,25.21,0,0,1,14.63-7.22,32,32,0,0,1,16.81,2.08l3.82,1.91a28.94,28.94,0,0,1,3.51,2.34,36.79,36.79,0,0,1,6.11,5.63,54.73,54.73,0,0,1,4.7,6.64,56.93,56.93,0,0,1,3.09,7.48,68,68,0,0,1-6.25-4.81c-2.13-1.43-4-3.06-6-4.44s-3.92-2.81-6-3.83a55.16,55.16,0,0,0-6.17-3.15,46.8,46.8,0,0,0-13.3-3.27A57.65,57.65,0,0,0,286.22,233.63Z"/><path class="cls-10" d="M224.88,233.63A57.65,57.65,0,0,0,210,233a46.8,46.8,0,0,0-13.3,3.27,55.16,55.16,0,0,0-6.17,3.15c-2.12,1-4,2.56-6,3.83s-3.87,3-6,4.44a69.23,69.23,0,0,1-6.24,4.81A55.6,55.6,0,0,1,175.3,245a54.65,54.65,0,0,1,4.69-6.64,37.6,37.6,0,0,1,6.11-5.63,29.06,29.06,0,0,1,3.52-2.34l3.82-1.91a32,32,0,0,1,16.81-2.08A25.24,25.24,0,0,1,224.88,233.63Z"/><path class="cls-12" d="M319.55,384.62a128.43,128.43,0,0,1-127.08,0c8.17-18.19,33.53-31.44,63.54-31.44S311.36,366.43,319.55,384.62Z"/><path class="cls-13" d="M269.58,375v40.79a3,3,0,0,1-4.22,2.71l-5.8-2.64a9.72,9.72,0,0,0-8,0l-5.78,2.64a3,3,0,0,1-4.22-2.72V375Z"/><path class="cls-11" d="M311.42,378.8a3.52,3.52,0,0,0-.95-4.3c-2.54-1.95-7.73-3.28-13.7-3.28s-11.15,1.33-13.7,3.28a3.53,3.53,0,0,0-.94,4.3l13,27.51a1.77,1.77,0,0,0,3.19,0Z"/><path class="cls-11" d="M229.24,378.8a3.53,3.53,0,0,0-.94-4.3c-2.55-1.95-7.73-3.28-13.71-3.28s-11.15,1.33-13.7,3.28a3.53,3.53,0,0,0-.94,4.3L213,406.31a1.76,1.76,0,0,0,3.18,0Z"/><path class="cls-9" d="M332.4,368.84h0a35,35,0,0,1-44.73,21.05h0a94.76,94.76,0,0,0-64.24,0h0a35,35,0,0,1-44.73-21.05h0a35,35,0,0,1,21-44.72h0a164.7,164.7,0,0,1,111.61,0h0A35,35,0,0,1,332.4,368.84Z"/><ellipse class="cls-10" cx="307.16" cy="361.38" rx="12.12" ry="8.27" transform="translate(-166.77 343.19) rotate(-47.44)"/><ellipse class="cls-10" cx="203.93" cy="361.38" rx="8.27" ry="12.12" transform="translate(-190.7 233.14) rotate(-42.56)"/><circle class="cls-10" cx="302.65" cy="281.84" r="13.28"/><circle class="cls-11" cx="298.6" cy="275.7" r="2.67"/><circle class="cls-11" cx="294.26" cy="280.03" r="1.67"/></g></g></svg>